#!OML:ASF H:\Punching\Project 1\Capture day 1\Session 1\female.ASF
:FULLY-SPECIFIED
:DEGREES
1724
root 4.94669 15.7943 8.27984 -349.138 379.149 1.97241
lowerback -7.27153 1.4808 -0.741101
upperback -6.9886 2.02183 -2.27907
thorax -3.10311 1.01465 -1.85156
lowerneck -15.4426 4.59861 10.2059
upperneck 38.3474 6.8495 -6.78626
head 17.2533 3.54607 -3.5351
rclavicle -1.11319e-014 1.23246e-014
rhumerus -39.1426 -15.7683 -70.4068
rradius 18.8148
rwrist 28.172
rhand -10.1601 -3.92106
rfingers 7.12502
rthumb 15.8294 -33.2939
lclavicle -1.11319e-014 1.23246e-014
lhumerus -51.2492 19.0988 59.1827
lradius 26.3424
lwrist -24.3358
lhand -0.943809 11.3117
lfingers 7.12502
lthumb 24.6861 39.7393
rfemur -13.3715 -2.69028 18.6004
rtibia 55.5139
rfoot 1.65751 1.49871
rtoes -19.4203
lfemur -20.3826 -1.39444 -27.7393
ltibia 17.0199
lfoot -6.25754 10.7384
ltoes 13.076
1725
root 4.99641 15.7983 8.35688 -349.091 379.027 2.40862
lowerback -6.99886 1.3647 -1.18591
upperback -6.89323 1.87996 -2.31346
thorax -3.17118 0.959936 -1.65013
lowerneck -15.4911 4.66978 10.2485
upperneck 38.2055 6.9464 -6.84998
head 17.207 3.57716 -3.54757
rclavicle 1.92821e-014 5.56597e-015
rhumerus -39.2718 -16.1204 -69.8517
rradius 18.6418
rwrist 28.6216
rhand -10.1946 -3.99447
rfingers 7.12502
rthumb 15.7962 -33.37
lclavicle 1.92821e-014 5.56597e-015
lhumerus -50.7288 18.8006 59.6694
lradius 26.6697
lwrist -23.998
lhand -1.07117 11.2956
lfingers 7.12502
lthumb 24.564 39.7398
rfemur -14.9402 -2.79362 18.017
rtibia 58.0513
rfoot 2.75522 1.08658
rtoes -17.6884
lfemur -19.3485 -1.14579 -28.3382
ltibia 15.9351
lfoot -6.06514 10.508
ltoes 12.8995
1726
root 5.04425 15.8032 8.43268 -349.063 378.948 2.82228
lowerback -6.70975 1.23718 -1.60615
upperback -6.78874 1.71927 -2.34328
thorax -3.2372 0.89487 -1.45785
lowerneck -15.5379 4.74044 10.2948
upperneck 38.0548 7.03965 -6.91258
head 17.1554 3.6073 -3.56053
rclavicle -1.78906e-015 -4.37326e-015
rhumerus -39.3642 -16.3595 -69.4067
rradius 18.5356
rwrist 28.9108
rhand -10.2952 -4.05562
rfingers 7.12502
rthumb 15.6993 -33.4388
lclavicle -1.78906e-015 -4.37326e-015
lhumerus -50.1823 18.4725 60.167
lradius 27.0202
lwrist -23.6633
lhand -1.23778 11.2885
lfingers 7.12502
lthumb 24.4043 39.7543
rfemur -16.4677 -2.93379 17.4966
rtibia 60.4241
rfoot 3.27979 0.393985
rtoes -16.1253
lfemur -18.3522 -0.974041 -28.8936
ltibia 14.9353
lfoot -5.90233 10.3363
ltoes 12.7285
1727
root 5.08989 15.8027 8.5067 -349.05 378.914 3.18665
lowerback -6.42111 1.10018 -1.9747
upperback -6.68278 1.54197 -2.36041
thorax -3.29893 0.819667 -1.28084
lowerneck -15.5644 4.81022 10.3476
upperneck 37.8955 7.13205 -6.97868
head 17.0948 3.63795 -3.57625
rclavicle -6.04305e-014 1.19271e-015
rhumerus -39.4354 -16.4756 -69.0713
rradius 18.4999
rwrist 29.0273
rhand -10.4585 -4.09888
rfingers 7.12502
rthumb 15.5421 -33.4943
lclavicle -6.04305e-014 1.19271e-015
lhumerus -49.624 18.125 60.6594
lradius 27.3817
lwrist -23.3412
lhand -1.45799 11.2805
lfingers 7.12502
lthumb 24.1932 39.7746
rfemur -17.9688 -3.09898 17.0693
rtibia 62.6252
rfoot 3.24564 -0.536455
rtoes -14.6322
lfemur -17.4443 -0.897473 -29.3777
ltibia 14.0856
lfoot -5.79336 10.2489
ltoes 12.5778
1728
root 5.13413 15.8005 8.57999 -349.049 378.922 3.4769
lowerback -6.14797 0.95727 -2.26553
upperback -6.57888 1.35306 -2.35733
thorax -3.35107 0.735946 -1.12529
lowerneck -15.574 4.87723 10.4001
upperneck 37.7355 7.22329 -7.04772
head 17.03 3.66821 -3.5936
rclavicle -4.50247e-014 -8.34896e-015
rhumerus -39.4878 -16.4751 -68.8381
rradius 18.5338
rwrist 28.9661
rhand -10.6538 -4.14461
rfingers 7.12502
rthumb 15.354 -33.5545
lclavicle -4.50247e-014 -8.34896e-015
lhumerus -49.0548 17.7555 61.1541
lradius 27.7505
lwrist -23.0215
lhand -1.74571 11.2781
lfingers 7.12502
lthumb 23.9173 39.8086
rfemur -19.4325 -3.27145 16.7585
rtibia 64.6087
rfoot 2.76197 -1.63902
rtoes -13.1276
lfemur -16.6482 -0.91546 -29.7653
ltibia 13.4255
lfoot -5.7655 10.2488
ltoes 12.4477
1729
root 5.17762 15.7975 8.65316 -349.068 378.965 3.66697
lowerback -5.90354 0.814801 -2.44933
upperback -6.47819 1.16148 -2.32921
thorax -3.387 0.647056 -1.00209
lowerneck -15.5633 4.93977 10.4538
upperneck 37.5793 7.31083 -7.11903
head 16.9623 3.69755 -3.61324
rclavicle 4.47266e-015 2.78299e-015
rhumerus -39.5335 -16.3671 -68.6988
rradius 18.6409
rwrist 28.7194
rhand -10.8605 -4.2028
rfingers 7.12502
rthumb 15.1548 -33.6279
lclavicle 4.47266e-015 2.78299e-015
lhumerus -48.4754 17.3596 61.6531
lradius 28.1241
lwrist -22.6933
lhand -2.09799 11.2829
lfingers 7.12502
lthumb 23.5794 39.8573
rfemur -20.8576 -3.42582 16.5859
rtibia 66.356
rfoot 1.97957 -2.83971
rtoes -11.5864
lfemur -16.0116 -1.01711 -30.0324
ltibia 13.0523
lfoot -5.8771 10.3384
ltoes 12.3524
1730
root 5.22073 15.794 8.72677 -349.104 379.035 3.74749
lowerback -5.69835 0.67598 -2.51765
upperback -6.38006 0.972692 -2.27218
thorax -3.4006 0.555445 -0.911831
lowerneck -15.5393 4.99676 10.5023
upperneck 37.4342 7.3945 -7.19098
head 16.8969 3.72521 -3.63353
rclavicle 5.51379e-014 1.43125e-014
rhumerus -39.5666 -16.1703 -68.6385
rradius 18.8079
rwrist 28.2987
rhand -11.0688 -4.27111
rfingers 7.12502
rthumb 14.9542 -33.7112
lclavicle 5.51379e-014 1.43125e-014
lhumerus -47.8839 16.9583 62.1485
lradius 28.4877
lwrist -22.3785
lhand -2.52509 11.279
lfingers 7.12502
lthumb 23.1697 39.9056
rfemur -22.2413 -3.54034 16.556
rtibia 67.8409
rfoot 1.02867 -4.08673
rtoes -10.1138
lfemur -15.5188 -1.17748 -30.1737
ltibia 12.9322
lfoot -6.11521 10.4956
ltoes 12.2861
